<?xml version="1.0" encoding="UTF-8"?>
<svg width="217px" height="85px" viewBox="0 0 217 85" version="1.1" xmlns="http://www.w3.org/2000/svg" xmlns:xlink="http://www.w3.org/1999/xlink">
    <!-- Generator: Sketch 42 (36781) - http://www.bohemiancoding.com/sketch -->
    <title>Group 9</title>
    <desc>Created with Sketch.</desc>
    <defs>
        <polygon id="path-1" points="0 0.0624326309 0 84.8141401 216.551481 84.8141401 216.551481 0.0624326309 3.28631228e-20 0.0624326309"></polygon>
    </defs>
    <g id="Homepage" stroke="none" stroke-width="1" fill="none" fill-rule="evenodd" opacity="0.187896286">
        <g id="Homepage-Desktop" transform="translate(-64.000000, -62.000000)">
            <g id="Art---Clouds" transform="translate(64.000000, 62.000000)">
                <g id="Group-9">
                    <mask id="mask-2" fill="white">
                        <use xlink:href="#path-1"></use>
                    </mask>
                    <g id="Clip-8"></g>
                    <path d="M210.851823,84.8141401 C214.478217,78.6097502 216.551481,74.7353931 216.551481,69.4392213 C216.551481,52.946405 196.5366,39.1747089 171.646517,38.806003 C171.650154,38.6187051 171.674403,38.2405754 171.674403,38.0497436 C171.674403,17.1230325 153.58002,0.0624326309 131.254237,0.0624326309 C113.587844,0.0624326309 98.6057813,10.6559543 93.1098124,25.4548438 C87.9630249,19.4589553 79.9330663,15.5598608 70.887087,15.5598608 C55.3473047,15.5598608 42.751315,26.9343794 42.751315,40.9817213 C42.751315,41.5530388 42.8046622,42.1066867 42.8446725,42.6697583 C39.8172218,41.9123209 36.6188176,41.4917841 33.3003824,41.4917841 C14.9077399,41.4917841 -0.00036373057,54.7369257 -0.00036373057,70.1200904 C-0.00036373057,75.1948031 1.65097306,78.6097502 4.4844342,84.8141401 L210.851823,84.8141401 Z" id="Fill-7" fill="#FFFFFF" mask="url(#mask-2)"></path>
                </g>
            </g>
        </g>
    </g>
</svg>